<?xml version="1.0" encoding="UTF-8"?>
<svg id="Calque_3" data-name="Calque 3" xmlns="http://www.w3.org/2000/svg" viewBox="0 0 635.48 396.63">
  <defs>
    <style>
      .cls-1, .cls-2, .cls-3, .cls-4 {
        fill: none;
        stroke: #f6f6f6;
        stroke-linecap: round;
        stroke-linejoin: round;
        stroke-width: 25px;
      }

      .cls-2 {
        stroke-dasharray: 0 0 205 50;
      }

      .cls-3 {
        stroke-dasharray: 0 0 195 39;
      }

      .cls-4 {
        stroke-dasharray: 0 0 400 50;
      }
    </style>
  </defs>
  <path class="cls-1" d="m604.51,311.13c.04.73,0-.78,0,0"/>
  <path class="cls-1" d="m31.29,304.38c0,73.9,184.75-73.9,184.75,0s184.75-73.9,184.75,0c0,63.94,138.3-38.08,175.59-18.89"/>
  <polyline class="cls-4" points="64.53 112.31 145.17 236.98 166.75 141.53 218.83 223.37 249.65 81.28"/>
  <polyline class="cls-2" points="458.61 82.8 486.39 225.59 562.71 100"/>
  <path class="cls-3" d="m403.83,220.93c-2.09-1.61-3.13-66.26-3.13-66.74-.56-36.29-8.61-51.43-23.61-61.38-17.52-11.62-67.17-15.88-83.9,24.41"/>
  <path class="cls-1" d="m420.78,153.83c-3.91,5.47-19.25,9.26-22.17,7.22-33.39-23.22-110.73-28.59-109.83,19.7,1.42,76.17,108.78,31.28,109.57-14.87"/>
</svg>